<svg xmlns="http://www.w3.org/2000/svg" width="18" height="19" viewBox="0 0 18 19"><g><g><path fill="#981b6c" d="M4.786 18.802a4.523 4.523 0 0 1-3.242-1.355 4.642 4.642 0 0 1-1.338-3.283c0-1.244.476-2.41 1.338-3.283l9.481-9.602c1.357-1.373 3.464-1.312 4.903.145 1.438 1.457 1.5 3.591.144 4.965L7.165 15.41a2.13 2.13 0 0 1-3.035 0 2.196 2.196 0 0 1 0-3.074l6.033-6.11a.517.517 0 0 1 .737 0 .533.533 0 0 1 0 .746l-6.033 6.111a1.13 1.13 0 0 0 0 1.581 1.096 1.096 0 0 0 1.561 0l8.907-9.02c.936-.95.875-2.443-.144-3.474-1.018-1.031-2.493-1.094-3.429-.145l-9.48 9.602a3.586 3.586 0 0 0-1.034 2.537c0 .961.367 1.862 1.033 2.537a3.491 3.491 0 0 0 2.505 1.046c.949 0 1.839-.371 2.504-1.046l9.481-9.602a.517.517 0 0 1 .737 0 .532.532 0 0 1 0 .746l-9.48 9.602a4.523 4.523 0 0 1-3.242 1.355z"/></g></g></svg>