<svg xmlns="http://www.w3.org/2000/svg" width="19" height="18" viewBox="0 0 19 18"><g><g><path fill="#898989" d="M18.3 3.315v13.017c0 .81-.656 1.467-1.466 1.467H2.167c-.81 0-1.467-.656-1.467-1.467V3.315c0-.81.657-1.466 1.467-1.466H4.55v-1.1a.55.55 0 0 1 1.1 0v1.1h3.3v-1.1a.55.55 0 0 1 1.1 0v1.1h3.3v-1.1a.55.55 0 1 1 1.1 0v1.1h2.384c.81 0 1.466.656 1.466 1.466zm-1.1 0a.367.367 0 0 0-.366-.366H14.45v1.1a.55.55 0 1 1-1.1 0v-1.1h-3.3v1.1a.55.55 0 1 1-1.1 0v-1.1h-3.3v1.1a.55.55 0 1 1-1.1 0v-1.1H2.167a.367.367 0 0 0-.367.366v13.017c0 .203.164.367.367.367h14.667a.367.367 0 0 0 .366-.367zM4.55 6.8h2.2v1.65h-2.2zm0 2.75h2.2v1.65h-2.2zm0 2.75h2.2v1.65h-2.2zm3.85 0h2.2v1.65H8.4zm0-2.75h2.2v1.65H8.4zm0-2.75h2.2v1.65H8.4zm3.85 5.5h2.2v1.65h-2.2zm0-2.75h2.2v1.65h-2.2zm0-2.75h2.2v1.65h-2.2z"/></g></g></svg>