<svg xmlns="http://www.w3.org/2000/svg" width="23" height="23" viewBox="0 0 23 23"><g><g><path fill="#981b6c" d="M.48 11.498C.48 5.428 5.43.478 11.5.478c6.07 0 11.02 4.932 11.02 11.02 0 6.089-4.95 11.02-11.02 11.02-6.07 0-11.02-4.95-11.02-11.02zm1.555 0c0 5.217 4.249 9.465 9.465 9.465s9.465-4.248 9.465-9.465c0-5.215-4.249-9.464-9.465-9.464s-9.465 4.249-9.465 9.464zm5.33 2.922l3.035-3.035L7.365 8.35a.778.778 0 0 1 1.1-1.1l3.035 3.035 3.035-3.035a.778.778 0 1 1 1.1 1.1L12.6 11.385l3.035 3.035a.777.777 0 1 1-1.1 1.1L11.5 12.484 8.465 15.52a.759.759 0 0 1-.55.229.777.777 0 0 1-.55-1.328z"/></g></g></svg>