<svg xmlns="http://www.w3.org/2000/svg" width="21" height="21" viewBox="0 0 21 21"><g><g><path fill="#981b6c" d="M21.06 3.818a3.853 3.853 0 0 1-1.137 2.744l-12.29 12.29a.657.657 0 0 1-.273.164L.793 21.03a.663.663 0 0 1-.672-.176.664.664 0 0 1-.141-.681l2.64-7.26a.644.644 0 0 1 .155-.242L14.438 1.074A3.85 3.85 0 0 1 17.18-.061c1.036 0 2.01.403 2.743 1.137a3.853 3.853 0 0 1 1.137 2.742zM7.045 15.778H5.88a.66.66 0 0 1-.66-.659V13.8H3.702L2.578 16.89c.323.166.63.37.895.635.304.304.527.676.67 1.096l2.458-.754zm10.021-9.286c0-.684-.268-1.327-.75-1.81a2.54 2.54 0 0 0-1.81-.75c-.683 0-1.326.266-1.81.75l-.007-.008-7.85 7.805H5.88a.66.66 0 0 1 .66.66v1.32h1.32a.658.658 0 0 1 .646.797l-.231 1.088 8.041-8.042c.484-.484.75-1.127.75-1.81zm2.674-2.674c0-.683-.267-1.325-.75-1.81a2.541 2.541 0 0 0-1.81-.75 2.54 2.54 0 0 0-1.81.75l-.001.002-.619.615c.945.059 1.826.45 2.5 1.123a3.853 3.853 0 0 1 1.124 2.497l.616-.616c.484-.483.75-1.126.75-1.81zm-4.153 1.594a.66.66 0 0 1 0 .934l-6.6 6.6a.66.66 0 0 1-.934-.934l6.6-6.6a.659.659 0 0 1 .934 0z"/></g></g></svg>