<svg xmlns="http://www.w3.org/2000/svg" width="60" height="60" viewBox="0 0 60 60"><g><g><path fill="#981b6c" d="M30 0C46.568 0 60 13.43 60 30c0 16.568-13.432 30-30 30C13.43 60 0 46.568 0 30 0 13.43 13.43 0 30 0z"/></g><g><path fill="#fff" d="M47.918 22.394v17.768c0 .795-.318 1.513-.829 2.051-.01.012-.013.025-.024.036-.003.003-.008.004-.012.008a3.057 3.057 0 0 1-2.187.92H14.65a3.056 3.056 0 0 1-2.187-.92c-.004-.004-.009-.004-.012-.008-.012-.011-.015-.025-.025-.036a2.976 2.976 0 0 1-.828-2.05V22.393c0-.775.306-1.476.794-2.01.008-.01.01-.024.018-.034.009-.01.02-.014.029-.022a3.055 3.055 0 0 1 2.211-.949h30.215a3.05 3.05 0 0 1 2.21.949c.009.008.02.012.028.022.009.01.01.023.019.033.488.534.795 1.236.795 2.011zm-1.391 18.433c.084-.206.133-.43.133-.665V22.394c0-.26-.06-.506-.163-.729L36.03 30.34zM14.65 20.622c-.264 0-.512.06-.738.161l15.845 13.132 15.846-13.132a1.802 1.802 0 0 0-.738-.161zm8.836 9.717L13.02 21.665a1.733 1.733 0 0 0-.163.73V40.16c0 .236.049.46.133.665zm21.379 11.595c.29 0 .561-.075.804-.196L35.063 31.14l-4.9 4.06a.633.633 0 0 1-.808 0l-4.901-4.06-10.607 10.598c.243.12.514.196.804.196z"/></g></g></svg>