<svg xmlns="http://www.w3.org/2000/svg" width="60" height="60" viewBox="0 0 60 60"><g><g><path fill="#981b6c" d="M30 0C46.569 0 60 13.43 60 30c0 16.568-13.431 30-30 30C13.431 60 0 46.568 0 30 0 13.43 13.431 0 30 0z"/></g><g><path fill="#fff" d="M47.96 43.384a3.757 3.757 0 0 1-2.17.686 3.779 3.779 0 0 1-3.1-1.607 3.788 3.788 0 0 1 .92-5.27 3.777 3.777 0 0 1 4.188-.109.647.647 0 0 1-.688 1.096 2.483 2.483 0 0 0-2.756.071 2.474 2.474 0 0 0-1.02 1.608 2.477 2.477 0 0 0 .414 1.86 2.492 2.492 0 0 0 3.468.607 2.496 2.496 0 0 0 .916-2.869.647.647 0 0 1 1.219-.433 3.794 3.794 0 0 1-1.392 4.36zm3.838-2.166a6.035 6.035 0 0 1-2.502 4.04 5.969 5.969 0 0 1-3.46 1.1c-.35 0-.703-.03-1.056-.091a6.17 6.17 0 0 1-4.024-2.553l-2.418-3.444-.663 3.79a6.045 6.045 0 0 1-2.496 3.933 6.04 6.04 0 0 1-4.544 1.014 6.035 6.035 0 0 1-3.93-2.497 6.044 6.044 0 0 1-1.016-4.546 6.045 6.045 0 0 1 2.497-3.93 6.043 6.043 0 0 1 4.544-1.016c.304.053.603.13.894.227l.516-2.953-5.664-8.067a12.196 12.196 0 0 1-1.888-9.8.648.648 0 0 1 1.159-.224l2.773 3.95a.647.647 0 1 1-1.059.742l-1.86-2.649c-.23 2.551.446 5.12 1.933 7.238l7.754 11.042 1.587-2.225-8.15-11.606a.647.647 0 0 1 1.058-.744l3.615 5.148 2.37-13.558a.647.647 0 0 1 1.143-.29 12.196 12.196 0 0 1 2.459 9.673l-1.319 7.544a.647.647 0 1 1-1.274-.224l1.318-7.543a10.902 10.902 0 0 0-1.327-7.373L36.45 28.594l5.127 7.3a6.06 6.06 0 0 1 5.377-1.573 6.068 6.068 0 0 1 3.675 2.285 6.044 6.044 0 0 1 1.17 4.612zm-14.512-2.445l-2.094-2.983-.433 2.473a.647.647 0 0 1-.927.468 4.742 4.742 0 0 0-1.325-.438 4.759 4.759 0 0 0-3.578.8 4.759 4.759 0 0 0-1.965 3.095 4.76 4.76 0 0 0 .799 3.578 4.759 4.759 0 0 0 3.094 1.966 4.753 4.753 0 0 0 3.579-.799 4.76 4.76 0 0 0 1.965-3.095zm12.312-1.384a4.777 4.777 0 0 0-2.894-1.798 4.77 4.77 0 0 0-4.685 1.736.645.645 0 0 1-1.038-.028l-1.318-1.877-1.587 2.224.422.601.002.003 3.314 4.72A4.89 4.89 0 0 0 45 44.992a4.712 4.712 0 0 0 3.55-.79 4.754 4.754 0 0 0 1.969-3.183 4.756 4.756 0 0 0-.92-3.63zm-14.19 6.276a3.758 3.758 0 0 1-1.551 2.444 3.754 3.754 0 0 1-2.826.631 3.789 3.789 0 0 1-3.075-4.379 3.757 3.757 0 0 1 1.552-2.444 3.76 3.76 0 0 1 2.826-.631 3.788 3.788 0 0 1 3.075 4.379zm-3.297-3.105a2.492 2.492 0 0 0-2.88 2.023 2.492 2.492 0 0 0 2.023 2.882 2.491 2.491 0 0 0 2.88-2.023 2.493 2.493 0 0 0-2.023-2.882zm5.325-6.985c-.098.56-.859.727-1.174.249a.655.655 0 0 1 .091-.828c.2-.19.507-.23.751-.102.244.13.38.41.332.68zM25.882 36.34c-.348.417-.86.655-1.402.656h-2.164a1.1 1.1 0 0 0-1.093 1.016l-.684 9.41a2.582 2.582 0 0 1-2.565 2.385 2.56 2.56 0 0 1-2.56-2.331c-.182-1.946-.45-5.023-.695-8.641a.647.647 0 1 1 1.29-.087c.244 3.603.512 6.669.693 8.607.062.66.609 1.158 1.272 1.158.667 0 1.226-.52 1.275-1.185l.684-9.41a2.399 2.399 0 0 1 2.383-2.216h2.164c.217 0 .35-.12.41-.192a.525.525 0 0 0 .115-.437l-.004-.025a.534.534 0 0 0-.526-.44h-3.288c-1.49 0-2.78-.901-3.065-2.143a38.907 38.907 0 0 1 0-17.566c.285-1.242 1.574-2.143 3.065-2.143h3.288c.259 0 .48-.185.526-.439l.003-.017a.534.534 0 0 0-.525-.638h-6.162a2.03 2.03 0 0 0-1.95 1.5c-1.019 3.751-1.194 11.787-.507 23.238a.647.647 0 0 1-1.291.078c-.878-14.643-.186-20.946.549-23.654a3.326 3.326 0 0 1 3.199-2.456h6.162c.543 0 1.054.239 1.403.656.348.416.492.961.396 1.496l-.004.024a1.826 1.826 0 0 1-1.8 1.506h-3.287c-.597 0-1.146.226-1.484.574h4.225a.647.647 0 0 1 0 1.294h-4.704c-.078.37-.15.74-.216 1.11h4.707a.646.646 0 1 1 0 1.293h-4.917c-.053.37-.101.74-.144 1.11h4.908a.647.647 0 0 1 0 1.293H18.53c-.03.37-.053.74-.071 1.11h5.005a.647.647 0 1 1 0 1.293h-5.048c-.005.37-.005.74 0 1.11h5a.647.647 0 0 1 0 1.293h-4.957c.018.37.042.74.071 1.11h4.885a.647.647 0 0 1 0 1.294h-4.76c.042.37.09.739.143 1.109h4.764a.646.646 0 1 1 0 1.294h-4.554c.066.369.138.739.216 1.108h4.704a.647.647 0 0 1 0 1.294h-4.225c.338.348.887.574 1.484.574h3.288c.885 0 1.642.634 1.799 1.506l.005.025a1.825 1.825 0 0 1-.397 1.496z"/></g></g></svg>