<svg xmlns="http://www.w3.org/2000/svg" width="60" height="60" viewBox="0 0 60 60"><g><g><path fill="#981b6c" d="M30 0C46.569 0 60 13.43 60 30c0 16.568-13.431 30-30 30C13.431 60 0 46.568 0 30 0 13.43 13.431 0 30 0z"/></g><g><path fill="#fff" d="M49.575 29.787c0 10.911-8.876 19.787-19.788 19.787C18.877 49.574 10 40.698 10 29.787c0-10.912 8.876-19.788 19.787-19.788 10.912 0 19.788 8.876 19.788 19.788zm-1.522 0c0-10.071-8.195-18.265-18.266-18.265-10.07 0-18.265 8.194-18.265 18.265 0 10.07 8.194 18.265 18.265 18.265s18.266-8.194 18.266-18.265zM30.548 38.92v1.522a.76.76 0 1 1-1.522 0V38.92a.76.76 0 1 1 1.522 0zm5.327-16.07a6.059 6.059 0 0 1-2.79 5.206c-1.565 1.01-2.537 2.885-2.537 4.895v2.163a.76.76 0 1 1-1.522 0v-2.163c0-2.56 1.209-4.868 3.233-6.174a4.546 4.546 0 0 0 2.094-3.905c-.034-2.406-2.095-4.466-4.5-4.5a4.493 4.493 0 0 0-3.272 1.314 4.536 4.536 0 0 0-1.36 3.251.76.76 0 1 1-1.522 0c0-1.642.645-3.181 1.814-4.335a6.041 6.041 0 0 1 4.273-1.753h.087c3.264.047 5.956 2.739 6.002 6.002z"/></g></g></svg>