<svg xmlns="http://www.w3.org/2000/svg" width="60" height="60" viewBox="0 0 60 60"><g><g><path fill="#981b6c" d="M30 0C46.569 0 60 13.43 60 30c0 16.568-13.431 30-30 30C13.431 60 0 46.568 0 30 0 13.43 13.431 0 30 0z"/></g><g><path fill="#fff" d="M46.55 46.783a.639.639 0 0 1-.639.638H12.703a.639.639 0 0 1 0-1.278h1.065V22.091c0-.353.286-.639.639-.639h5.321v-5.32c0-.354.286-.64.639-.64h1.916v-2.767c0-.352.286-.639.638-.639h2.768v-1.915a.64.64 0 1 1 1.277 0v1.915h2.767c.353 0 .639.287.639.64v2.766h1.277v-2.767c0-.352.286-.639.639-.639h11.92c.353 0 .639.287.639.64v33.418h1.064c.353 0 .639.286.639.639zM23.56 15.492h5.534v-2.128H23.56zM21.43 44.016h-2.129v2.128h.426V45.08a.638.638 0 1 1 1.277 0v1.064h.426zm4.258-21.287H15.045v23.415h2.98v-2.767c0-.352.286-.639.639-.639h3.406c.352 0 .638.287.638.639v2.767h2.98zm1.277-.638v.213h1.916a.639.639 0 0 1 0 1.277h-1.916v2.128h1.916a.639.639 0 0 1 0 1.278h-1.916v2.128h4.683V16.77H21.005v4.682h5.322c.353 0 .639.286.639.639zm10.643 8.302H26.966v15.75h10.643zm5.96 15.75V13.365H32.927v15.75h2.129v-.211a.638.638 0 1 1 1.277 0v.212h1.277v-.212a.638.638 0 1 1 1.277 0v17.24zm-14.474-1.915v-11.92a.638.638 0 1 1 1.277 0v11.92a.639.639 0 1 1-1.277 0zm2.554 0v-11.92a.638.638 0 1 1 1.277 0v11.92a.639.639 0 1 1-1.277 0zm2.554 0v-11.92a.638.638 0 1 1 1.278 0v11.92a.639.639 0 1 1-1.278 0zm.852-27.245v-.852a.639.639 0 1 1 1.277 0v.852a.638.638 0 0 1-1.277 0zm2.554 0v-.852a.639.639 0 1 1 1.277 0v.852a.638.638 0 0 1-1.277 0zm2.555 0v-.852a.639.639 0 1 1 1.277 0v.852a.638.638 0 0 1-1.277 0zm-5.11 4.256v-.85a.638.638 0 1 1 1.278 0v.85a.638.638 0 1 1-1.277 0zm2.555 0v-.85a.638.638 0 1 1 1.277 0v.85a.638.638 0 1 1-1.277 0zm2.555 0v-.85a.638.638 0 1 1 1.277 0v.85a.638.638 0 1 1-1.277 0zm-5.11 4.257v-.85a.638.638 0 1 1 1.278 0v.85a.64.64 0 1 1-1.277 0zm2.555 0v-.85a.638.638 0 1 1 1.277 0v.85a.64.64 0 1 1-1.277 0zm2.555 0v-.85a.638.638 0 1 1 1.277 0v.85a.64.64 0 1 1-1.277 0zM17.174 27.2v-.852a.639.639 0 0 1 1.277 0v.852a.638.638 0 0 1-1.277 0zm2.554 0v-.852a.639.639 0 0 1 1.277 0v.852a.638.638 0 0 1-1.277 0zm2.555 0v-.852a.639.639 0 0 1 1.277 0v.852a.638.638 0 0 1-1.277 0zm-5.11 4.257v-.852a.639.639 0 0 1 1.278 0v.852a.639.639 0 1 1-1.277 0zm2.555 0v-.852a.639.639 0 0 1 1.277 0v.852a.639.639 0 1 1-1.277 0zm2.555 0v-.852a.639.639 0 0 1 1.277 0v.852a.639.639 0 1 1-1.277 0zm-5.11 4.257v-.851a.639.639 0 1 1 1.278 0v.851a.639.639 0 0 1-1.277 0zm2.555 0v-.851a.639.639 0 1 1 1.277 0v.851a.639.639 0 0 1-1.277 0zm2.555 0v-.851a.639.639 0 1 1 1.277 0v.851a.639.639 0 0 1-1.277 0zm-5.11 4.258v-.853a.638.638 0 0 1 1.278 0v.853a.639.639 0 0 1-1.277 0zm2.555 0v-.853a.638.638 0 0 1 1.277 0v.853a.639.639 0 0 1-1.277 0zm2.555 0v-.853a.638.638 0 0 1 1.277 0v.853a.639.639 0 0 1-1.277 0zm17.88-10.218v-.851a.638.638 0 1 1 1.278 0v.851a.638.638 0 1 1-1.277 0zm0 4.257v-.852a.638.638 0 0 1 1.278 0v.852a.639.639 0 0 1-1.277 0zm0 4.257v-.851a.639.639 0 1 1 1.278 0v.851a.638.638 0 1 1-1.277 0zm0 4.257v-.85a.639.639 0 1 1 1.278 0v.85a.639.639 0 1 1-1.277 0zm-11.281-22.35h-5.11a.639.639 0 0 1 0-1.277h5.11a.638.638 0 1 1 0 1.277z"/></g></g></svg>