<svg xmlns="http://www.w3.org/2000/svg" width="60" height="60" viewBox="0 0 60 60"><g><g><path fill="#981b6c" d="M30 0C46.569 0 60 13.43 60 30c0 16.568-13.431 30-30 30C13.431 60 0 46.568 0 30 0 13.43 13.431 0 30 0z"/></g><g><path fill="#fff" d="M42.025 24.879v3.84a1.28 1.28 0 0 1-1.28 1.28v11.52a1.28 1.28 0 0 1-1.281 1.28H21.536a1.28 1.28 0 0 1-1.28-1.28v-11.52a1.28 1.28 0 0 1-1.281-1.28v-3.84c0-.707.573-1.28 1.28-1.28h4.512c-.38-.14-.71-.287-.955-.428a3.2 3.2 0 1 1 3.201-5.543c.957.552 2.602 2.147 3.487 3.64.885-1.493 2.53-3.088 3.486-3.64a3.2 3.2 0 0 1 3.201 5.543 6.413 6.413 0 0 1-.954.428h4.511c.708 0 1.28.573 1.28 1.28zM31.17 22.942c.132.06.452.148 1.037.148 1.563 0 3.614-.61 4.34-1.028a1.92 1.92 0 0 0-1.92-3.325c-1.37.79-3.441 3.333-3.457 4.205zm-4.512 18.577v-11.52h-5.122v11.52zm0-16.64h-6.403v3.84h6.403zm2.135-1.79c.585 0 .905-.087 1.036-.147-.015-.872-2.087-3.415-3.456-4.205a1.922 1.922 0 0 0-2.624.703 1.92 1.92 0 0 0 .703 2.622c.726.418 2.778 1.028 4.34 1.028zm4.268 1.79H27.94v16.64h5.122zm6.403 16.64v-11.52h-5.122v11.52zm1.28-16.64h-6.402v3.84h6.402z"/></g></g></svg>