<svg xmlns="http://www.w3.org/2000/svg" width="60" height="60" viewBox="0 0 60 60"><g><g><path fill="#981b6c" d="M30 0C46.569 0 60 13.43 60 30c0 16.568-13.431 30-30 30C13.431 60 0 46.568 0 30 0 13.43 13.431 0 30 0z"/></g><g><path fill="#fff" d="M48.661 35.827v.485c0 .015-.015.029-.03.029h-9.034a9.9 9.9 0 0 1 .08 1.242v.5a3.905 3.905 0 0 1-3.904 3.909H24.396a3.905 3.905 0 0 1-3.905-3.909v-.5c0-.419.03-.838.081-1.242h-8.977c-.014 0-.029-.014-.029-.029v-.485a7.44 7.44 0 0 1 5.006-7.031 4.226 4.226 0 0 1-1.806-3.469 4.234 4.234 0 1 1 8.47 0c0 1.432-.719 2.704-1.805 3.469a7.375 7.375 0 0 1 2.473 1.44 9.57 9.57 0 0 1 3.399-1.852 5.369 5.369 0 0 1-2.591-4.6 5.366 5.366 0 0 1 10.73 0 5.385 5.385 0 0 1-2.59 4.6 9.488 9.488 0 0 1 3.434 1.873 7.337 7.337 0 0 1 2.503-1.47 4.222 4.222 0 0 1-1.805-3.467 4.234 4.234 0 1 1 8.47 0c0 1.432-.72 2.704-1.806 3.467a7.471 7.471 0 0 1 5.013 7.04zm-7.501-7.45H41.277a3.072 3.072 0 0 0 3.002-3.064 3.065 3.065 0 0 0-3.06-3.065 3.065 3.065 0 0 0-.06 6.128zm-11.34-.405h.484a4.197 4.197 0 0 0-.242-8.384 4.197 4.197 0 0 0-4.19 4.196 4.2 4.2 0 0 0 3.948 4.188zm-10.9.404h.118a3.072 3.072 0 0 0 3.002-3.063 3.065 3.065 0 0 0-3.06-3.065 3.065 3.065 0 0 0-.06 6.128zm4.103 2.668a6.196 6.196 0 0 0-4-1.492h-.088c-3.207.022-5.85 2.476-6.18 5.607h8.023a9.648 9.648 0 0 1 2.245-4.115zm15.465 6.539c0-4.563-3.64-8.295-8.169-8.427-.08.007-.169.007-.25.007-.08 0-.168 0-.249-.007-4.529.131-8.17 3.864-8.17 8.427v.5a2.736 2.736 0 0 0 2.731 2.733h11.377a2.736 2.736 0 0 0 2.73-2.733zm8.955-2.424c-.33-3.13-2.973-5.585-6.18-5.607h-.088a6.229 6.229 0 0 0-4.037 1.521 9.622 9.622 0 0 1 2.224 4.086z"/></g></g></svg>