<svg xmlns="http://www.w3.org/2000/svg" width="60" height="60" viewBox="0 0 60 60"><g><g><path fill="#981b6c" d="M30 0C46.569 0 60 13.43 60 30c0 16.569-13.431 30-30 30C13.431 60 0 46.569 0 30 0 13.43 13.431 0 30 0z"/></g><g><path fill="#fff" d="M49.575 29.787c0 10.911-8.876 19.788-19.788 19.788C18.877 49.575 10 40.698 10 29.787c0-10.912 8.876-19.788 19.787-19.788 10.912 0 19.788 8.876 19.788 19.788zm-1.522 0c0-10.072-8.195-18.265-18.266-18.265-10.07 0-18.265 8.193-18.265 18.265 0 10.07 8.194 18.265 18.265 18.265s18.266-8.194 18.266-18.265zm-17.505 9.132v1.523a.76.76 0 1 1-1.522 0v-1.523a.76.76 0 1 1 1.522 0zm5.327-16.068a6.059 6.059 0 0 1-2.79 5.205c-1.565 1.01-2.537 2.885-2.537 4.895v2.163a.76.76 0 1 1-1.522 0v-2.163c0-2.56 1.209-4.868 3.233-6.174a4.545 4.545 0 0 0 2.094-3.905c-.034-2.406-2.095-4.466-4.5-4.5a4.494 4.494 0 0 0-3.272 1.314 4.535 4.535 0 0 0-1.36 3.251.76.76 0 1 1-1.522 0c0-1.642.645-3.181 1.814-4.335a6.043 6.043 0 0 1 4.273-1.753h.087c3.264.046 5.956 2.738 6.002 6.002z"/></g></g></svg>