<svg xmlns="http://www.w3.org/2000/svg" width="60" height="60" viewBox="0 0 60 60"><g><g><path fill="#981b6c" d="M30 0C46.569 0 60 13.43 60 30c0 16.568-13.431 30-30 30C13.431 60 0 46.568 0 30 0 13.43 13.431 0 30 0z"/></g><g><path fill="#fff" d="M13.172 26.889a.497.497 0 0 1-.024-.654l5.968-7.957a.498.498 0 0 1 .407-.21h9.946a.497.497 0 0 1 .06 0h9.925a.5.5 0 0 1 .439.222l5.964 7.952a.503.503 0 0 1 .105.306c0 .13-.05.248-.13.337L29.898 45.803a.497.497 0 0 1-.549.176.496.496 0 0 1-.246-.172zm31.219.158h-8.539L30.73 43.27zm-29.782 0L28.271 43.27l-5.123-16.223zm20.197 0H24.194L29.5 43.849zm-4.309-7.981l4.904 6.537 3.269-6.537zm13.968 6.983l-4.902-6.537-3.27 6.537zm-19.953 0h9.977L29.5 19.4zm-4.183-6.983l3.27 6.538 4.904-6.538zm-5.795 6.983h8.171l-3.268-6.536z"/></g></g></svg>