<svg xmlns="http://www.w3.org/2000/svg" width="97" height="94" viewBox="0 0 97 94"><defs><clipPath id="huz0a"><path fill="#fff" d="M7 0h83a7 7 0 0 1 7 7v66a7 7 0 0 1-7 7H7a7 7 0 0 1-7-7V7a7 7 0 0 1 7-7z"/></clipPath><clipPath id="huz0b"><path fill="#fff" d="M11.844 4h73.312a7 7 0 0 1 7 7v58a7 7 0 0 1-7 7H11.844a7 7 0 0 1-7-7V11a7 7 0 0 1 7-7z"/></clipPath></defs><g><g><path fill="#fff" d="M7 0h83a7 7 0 0 1 7 7v66a7 7 0 0 1-7 7H7a7 7 0 0 1-7-7V7a7 7 0 0 1 7-7z"/><path fill="none" stroke="#981b6c" stroke-miterlimit="50" stroke-width="2" d="M7 0h83a7 7 0 0 1 7 7v66a7 7 0 0 1-7 7H7a7 7 0 0 1-7-7V7a7 7 0 0 1 7-7z" clip-path="url(&quot;#huz0a&quot;)"/></g><g><path fill="#fff" d="M11.844 4h73.312a7 7 0 0 1 7 7v58a7 7 0 0 1-7 7H11.844a7 7 0 0 1-7-7V11a7 7 0 0 1 7-7z"/><path fill="none" stroke="#ddd" stroke-miterlimit="50" stroke-width="2" d="M11.844 4h73.312a7 7 0 0 1 7 7v58a7 7 0 0 1-7 7H11.844a7 7 0 0 1-7-7V11a7 7 0 0 1 7-7z" clip-path="url(&quot;#huz0b&quot;)"/></g><g><path fill="#b8b8b8" d="M72 33.708v20.558a3.386 3.386 0 0 1-3.383 3.383H33.383A3.386 3.386 0 0 1 30 54.266V33.708a3.363 3.363 0 0 1 3.36-3.36h.84V26.85h4.2v3.5h.926l2.8-7h17.748l2.8 7h5.967A3.363 3.363 0 0 1 72 33.708zm-36.4-3.36H37v-2.1h-1.4zm35 3.36c0-1.08-.88-1.959-1.96-1.959h-6.914l-2.8-7H43.074l-2.8 7h-6.915c-1.08 0-1.96.88-1.96 1.96v20.557c0 1.093.89 1.983 1.984 1.983h35.234a1.985 1.985 0 0 0 1.983-1.983zm-7 8.542c0 6.947-5.653 12.599-12.6 12.599-6.948 0-12.6-5.652-12.6-12.6 0-6.948 5.652-12.6 12.6-12.6 6.947 0 12.6 5.652 12.6 12.6zm-1.4 0c0-6.176-5.025-11.201-11.2-11.201-6.176 0-11.2 5.025-11.2 11.2 0 6.175 5.024 11.2 11.2 11.2 6.175 0 11.2-5.025 11.2-11.2zm-2.8 0c0 4.63-3.768 8.399-8.4 8.399-4.632 0-8.4-3.768-8.4-8.4 0-4.633 3.768-8.4 8.4-8.4 4.632 0 8.4 3.767 8.4 8.4zm-1.4 0c0-3.86-3.14-7.001-7-7.001s-7 3.14-7 7 3.14 7 7 7 7-3.14 7-7zm11.2-6.3c0 1.543-1.256 2.8-2.8 2.8a2.803 2.803 0 0 1-2.8-2.8c0-1.546 1.256-2.801 2.8-2.801 1.544 0 2.8 1.255 2.8 2.8zm-1.4 0c0-.773-.628-1.401-1.4-1.401-.772 0-1.4.628-1.4 1.4 0 .772.628 1.4 1.4 1.4.772 0 1.4-.628 1.4-1.4z"/></g><g><path fill="#981b6c" d="M51.5 71C57.85 71 63 76.148 63 82.5 63 88.85 57.851 94 51.5 94S40 88.85 40 82.5C40 76.148 45.149 71 51.5 71z"/></g><g><g><text dominant-baseline="text-before-edge" style="line-height:23.97752px" fill="#fff" font-family="'GothamPro','GothamPro-Medium'" font-size="20" transform="translate(46 78)"><tspan style="font-kerning:normal">+</tspan></text></g></g></g></svg>