<svg xmlns="http://www.w3.org/2000/svg" width="42" height="35" viewBox="0 0 42 35"><g><g><path fill="#b8b8b8" d="M42 10.708v20.558a3.386 3.386 0 0 1-3.383 3.383H3.383A3.386 3.386 0 0 1 0 31.266V10.708a3.363 3.363 0 0 1 3.36-3.36h.84v-3.5h4.2v3.5h.926l2.8-7h17.748l2.8 7h5.967A3.363 3.363 0 0 1 42 10.709zM5.6 7.348H7v-2.1H5.6zm35 3.36c0-1.08-.88-1.96-1.96-1.96h-6.914l-2.8-7H13.074l-2.8 7H3.359c-1.08 0-1.96.88-1.96 1.96v20.558c0 1.093.89 1.983 1.984 1.983h35.234a1.984 1.984 0 0 0 1.983-1.983zm-7 8.541c0 6.947-5.653 12.6-12.6 12.6-6.948 0-12.6-5.653-12.6-12.6 0-6.948 5.652-12.6 12.6-12.6 6.947 0 12.6 5.652 12.6 12.6zm-1.4 0c0-6.175-5.025-11.2-11.2-11.2-6.175 0-11.2 5.025-11.2 11.2 0 6.175 5.025 11.2 11.2 11.2 6.175 0 11.2-5.025 11.2-11.2zm-2.8 0c0 4.632-3.768 8.4-8.4 8.4-4.632 0-8.4-3.768-8.4-8.4 0-4.632 3.768-8.4 8.4-8.4 4.632 0 8.4 3.768 8.4 8.4zm-1.4 0c0-3.86-3.14-7-7-7s-7 3.14-7 7 3.14 7 7 7 7-3.14 7-7zm11.2-6.3c0 1.544-1.256 2.8-2.8 2.8a2.803 2.803 0 0 1-2.8-2.8c0-1.544 1.256-2.8 2.8-2.8 1.544 0 2.8 1.256 2.8 2.8zm-1.4 0c0-.772-.628-1.4-1.4-1.4-.772 0-1.4.628-1.4 1.4 0 .772.628 1.4 1.4 1.4.772 0 1.4-.628 1.4-1.4z"/></g></g></svg>